inDegrees=yes
name=ik_Xsens_3
DataType=double
version=3
OpenSimVersion=4.4-2022-07-23-0e9fedc
endheader
time	pelvis_tilt	pelvis_list	pelvis_rotation	pelvis_tx	pelvis_ty	pelvis_tz	hip_flexion_r	hip_adduction_r	hip_rotation_r	knee_angle_r	knee_angle_r_beta	ankle_angle_r	subtalar_angle_r	mtp_angle_r	hip_flexion_l	hip_adduction_l	hip_rotation_l	knee_angle_l	knee_angle_l_beta	ankle_angle_l	subtalar_angle_l	mtp_angle_l	lumbar_extension	lumbar_bending	lumbar_rotation	arm_flex_r	arm_add_r	arm_rot_r	elbow_flex_r	pro_sup_r	wrist_flex_r	wrist_dev_r	arm_flex_l	arm_add_l	arm_rot_l	elbow_flex_l	pro_sup_l	wrist_flex_l	wrist_dev_l
46.38333333333333	0	3.448364295351686e-34	0	0	0.93	0	4.918011962448483e-38	9.130373324466097e-40	0	0	-1.617691406981778e-40	3.189116125825462e-40	0	0	4.918011962448483e-38	9.130373324466097e-40	0	0	-1.617691406981778e-40	3.189116125825462e-40	0	0	0	3.448364295351686e-34	0	-2.286905051045836e-07	-0.0001623950877769986	-7.959767122472149e-05	-9.785967636624914e-05	-0.0001099870986449923	0	1.185151720851724e-37	16.79532688861141	-57.4831688540599	22.83912252431228	43.8102731183648	-39.32001718997254	0	1.185151720851724e-37
46.4	0	-4.310455369189608e-35	0	0	0.93	0	1.724111671080877e-38	0	0	1.089590050500102e-40	2.596950905187841e-42	3.157228121795414e-44	0	0	1.724111671080877e-38	0	0	1.089590050500102e-40	2.596950905187841e-42	3.157228121795414e-44	0	0	0	-4.310455369189608e-35	0	-2.286905051045836e-07	-0.0001623950877769986	-7.959767122472149e-05	-9.785967636624914e-05	-0.0001099870986449923	0	1.763494605460509e-37	16.54124611934807	-57.20506497878896	22.9796298323864	43.7723749303726	-39.45733902651425	0	1.763494605460509e-37
46.41666666666666	-8.405387969919735e-34	-8.620953411930043e-34	1.077613842297402e-34	0	0.93	0	-5.959979511534782e-38	0	0	4.525982492496669e-39	2.596950905187841e-42	3.125658966236448e-48	0	0	-5.959979511534782e-38	0	0	4.525982492496669e-39	2.596950905187841e-42	3.125658966236448e-48	0	0	-8.405387969919735e-34	-8.620953411930043e-34	1.077613842297402e-34	-2.286905051045836e-07	-0.0001623950877769986	-7.959767122472149e-05	-9.785967636624914e-05	-0.0001099870986449923	0	-1.818511193111232e-37	16.32147967041935	-56.9734388098795	23.10071811190897	43.73530467742722	-39.57161671934342	0	-1.818511193111232e-37
46.43333333333333	5.050038576090141e-26	-1.953516684714159e-16	7.110652516436402e-26	4.312932315431131e-20	0.93	-2.239822051478859e-17	2.141612482754904e-34	-2.314158415544891e-26	2.182172192827944e-25	1.936467177621471e-14	3.379772815863304e-16	-1.576352675686107e-17	4.28491097985025e-18	-3.438282643848585e-18	-4.370180497228825e-16	-1.104210525418113e-15	-2.226854179014934e-15	1.936467177629924e-14	3.37977279170238e-16	-7.506732929220654e-18	-7.288411309383608e-19	-1.905423388140436e-16	-7.261159056294604e-19	-1.947989691035413e-17	1.185239138022555e-18	-2.286905051045835e-07	-0.0001623950877770079	-7.959767122474734e-05	-9.785967636618567e-05	-0.0001099870986449965	6.683516864663845e-15	-1.574038148993383e-16	16.15224836693532	-56.75295468584564	23.16247762734504	43.69291468248168	-39.72415352955478	9.932427736502145e-14	-1.169888313299742e-14
46.45	3.806534404878388e-26	-1.761496420489592e-19	-3.614771019747738e-27	1.129720715921378e-18	0.93	6.058452240603534e-28	8.825498873808951e-16	9.042606327078363e-15	7.198841620545413e-31	2.729097843764306e-15	4.763174298350186e-17	-4.157960298619908e-22	-3.309141519405356e-20	2.159583451724193e-18	7.547242301926e-19	2.18238894148991e-30	5.988289192368864e-20	2.729435668326756e-15	4.763738994759006e-17	3.730096442721348e-21	-7.752725770332378e-25	1.603408875017981e-18	3.806534404514414e-26	-2.063287261127995e-23	5.626664966480685e-25	-2.286905051045872e-07	-0.0001623950877770079	-7.959767122474735e-05	-9.785967636618563e-05	-0.0001099870986449966	-3.786374471195894e-19	1.158963258638573e-17	16.00166755632394	-56.51636331821048	23.17907393564095	43.63159827078691	-39.93293281837087	-2.675309255730013e-16	-2.81119009495597e-17
46.46666666666667	-2.719880635723704e-12	-8.779484815564532e-12	4.98475475668347e-13	1.699240795636893e-31	0.93	9.112667458926197e-41	1.327465020199875e-28	1.360120724537712e-27	1.082795525527982e-43	1.69253948265384e-15	2.954038667358013e-17	-5.852441235704421e-35	-4.977361385927159e-33	3.248282740180708e-31	1.135082232972338e-31	-6.107413183665988e-29	9.007133487364285e-33	1.69253948265384e-15	2.954038667358007e-17	5.738213804534854e-34	-1.166106606763346e-37	2.411726840199301e-31	-2.719880635723704e-12	-8.779484815564532e-12	4.98475475668347e-13	-2.286905051045872e-07	-0.0001623950877770079	-7.959767122474735e-05	-9.785967636618563e-05	-0.0001099870986449966	-5.695179240620385e-32	1.743235216301908e-30	15.83031417386456	-56.30099108781349	23.19993627120634	43.5342301195171	-40.13906133070828	-4.023998643393718e-29	-4.228373519358133e-30
46.48333333333333	0	2.586273221513726e-33	-4.957023674568025e-34	0	0.93	0	3.68769307593233e-37	5.88050448075993e-47	0	6.211418501439365e-40	3.485316109055237e-41	-5.793922617270128e-39	1.660327013893401e-67	0	-4.543372319479932e-37	5.647328606224752e-47	5.49983323352189e-68	6.211418501439365e-40	4.535472441964291e-41	5.680837347326952e-38	2.107837029356857e-70	0	0	1.056061565451415e-33	-8.836433506838697e-34	-2.286905051045872e-07	-0.0001623950877770079	-7.959767122474735e-05	-9.785967636618563e-05	-0.0001099870986449966	0	-2.647199711473719e-36	15.64160222722258	-56.14706651105203	23.25784440606372	43.42223679506752	-40.2749315213706	0	-2.461679017085859e-36
46.5	0	0	-8.621401484213745e-34	0	0.93	0	6.375639956581744e-36	2.125218577783553e-66	0	0	-8.449024266952766e-41	-5.735989127086631e-43	0	0	6.367490386881624e-36	6.473740765260447e-65	0	0	-8.449024266952766e-41	5.62403459788843e-42	0	0	0	0	-8.6217855461712e-34	-2.286905051045872e-07	-0.0001623950877770079	-7.959767122474735e-05	-9.785967636618563e-05	-0.0001099870986449966	0	-1.0728844185277e-37	15.46250364863168	-56.02387952301631	23.32082905817473	43.31288605718622	-40.38083564674985	0	-1.072700752856598e-37
46.51666666666667	3.400088436627909e-26	1.098642765220667e-18	-7.189253058008912e-26	-1.42622529684007e-20	0.93	3.954507937901394e-18	1.566234555266637e-34	-4.094932361437222e-34	-3.593725292099138e-25	3.418319166175119e-16	6.590963877143866e-18	4.554114600581007e-17	-1.564455299597552e-17	-3.959561978418048e-20	-1.704389667209145e-15	5.928343212738337e-16	4.501446801183194e-15	3.418319183826805e-16	7.592062042379239e-18	4.566067652999415e-17	4.047229406950136e-17	1.217405798869167e-18	-5.102441716732235e-17	1.342013639045974e-16	8.181517183788971e-17	-2.286905051045871e-07	-0.0001623950877770028	-7.959767122474764e-05	-9.78596763661871e-05	-0.000109987098644998	1.057850730035149e-17	-8.102808740662161e-18	15.28986146797834	-55.90409953510159	23.37885782096174	43.20554577333588	-40.4865068030931	-4.613494490552109e-18	-6.084913599280297e-17
46.53333333333333	4.370428591727853e-44	-8.968955903130246e-35	-6.034637516915632e-34	0	0.93	-1.603658826055317e-50	-4.16405352069581e-36	-5.428609082405111e-36	0	0	1.387077474440771e-41	1.776676371947647e-35	1.588957725730241e-51	-2.920878172298238e-54	6.010394345888608e-36	-5.38806921148701e-36	0	0	-1.386686315111628e-40	-1.423100689741026e-36	0	0	3.793200724886855e-33	-2.1041962646362e-35	-6.896728590703373e-34	-2.286905051045871e-07	-0.0001623950877770028	-7.959767122474764e-05	-9.78596763661871e-05	-0.000109987098644998	0	1.140215161216086e-35	15.09288294369552	-55.77088980886013	23.44153949367023	43.07757124616931	-40.60945398005621	0	7.497182913597351e-37
46.55	-4.049334879652692e-28	4.231727365106943e-23	2.552265219009644e-29	4.186689927843267e-24	0.93	-3.817826267844357e-22	-5.030132534106315e-34	3.47386141307947e-20	0	1.039187984044468e-14	1.81372518689078e-16	-1.897957673941328e-23	9.773964316510669e-19	1.46819446825809e-21	4.82316832284142e-22	-1.76914294203246e-27	4.194064441944942e-22	1.039140216728712e-14	1.813656264881145e-16	-2.615174284787686e-16	1.858300576797367e-25	-2.477769083229205e-21	-3.408718451048028e-28	-4.866480000851914e-25	5.019332625857722e-24	-2.286905051045845e-07	-0.0001623950877770026	-7.959767122474743e-05	-9.785967636619053e-05	-0.000109987098644998	1.280336503187852e-25	-4.595325572436624e-20	14.87467405713643	-55.68045963976467	23.55045665671875	42.95036867973585	-40.66270510138349	1.026406137727144e-21	-3.664117607539735e-20
46.56666666666666	-5.820128548064513e-34	-2.982434671306253e-35	1.016483081265731e-36	0	0.93	0	-2.302115439231634e-37	1.360765470655011e-37	0	1.739026097930411e-40	-6.343164292946343e-43	2.052657932693255e-36	0	2.555768400760958e-55	3.112481096929331e-37	0	0	5.693582844998174e-41	-1.221130345949742e-42	3.81943906618731e-37	0	0	-6.016040991384473e-34	-1.945715109501759e-35	1.016483081265731e-36	-2.286905051045845e-07	-0.0001623950877770026	-7.959767122474743e-05	-9.785967636619053e-05	-0.000109987098644998	0	2.298801749439557e-37	14.65428878383034	-55.59832891245161	23.67227717739281	42.83141385773141	-40.69524005318209	0	-1.852552329698088e-37
46.58333333333334	0	0	6.250160285324932e-34	0	0.93	0	-9.735851508742707e-36	4.027162781279613e-56	0	0	-6.343164292946343e-43	2.032133385499751e-40	0	0	-9.730490522075898e-36	0	0	0	-1.221130345949742e-42	3.781248456773899e-41	0	0	0	0	6.250160285324932e-34	-2.286905051045845e-07	-0.0001623950877770026	-7.959767122474743e-05	-9.785967636619053e-05	-0.000109987098644998	0	2.442988610231856e-37	14.43954753936546	-55.54219296910559	23.80544136419501	42.71922522092842	-40.6949222259347	0	2.442577625767036e-37
46.6	-9.483001812217137e-34	0	0	0	0.93	0	5.323318036519309e-38	3.986895140362094e-60	0	0	-6.343164292946343e-43	6.12008984773835e-37	0	0	5.328625944523977e-38	0	0	0	-1.221130345949742e-42	6.120089683991341e-37	0	0	-9.483001812217137e-34	0	0	-2.286905051045845e-07	-0.0001623950877770026	-7.959767122474743e-05	-9.785967636619053e-05	-0.000109987098644998	0	2.418561142690699e-41	14.25220244873357	-55.52387248685851	23.94949737575264	42.63659504846501	-40.64132094026142	0	2.418154267663678e-41
46.61666666666667	5.813451056430294e-34	2.047466300365064e-34	1.531381375197898e-49	0	0.93	0	-3.346065482635572e-38	1.269682511067078e-36	0	1.736776827484123e-38	2.116867147049151e-40	6.058895008156344e-41	0	0	-3.346012928554879e-38	1.269682511067078e-36	0	1.736776827484123e-38	2.1109990078826e-40	6.058894846046383e-41	0	0	5.813451056430294e-34	2.047466300365064e-34	1.531381375197898e-49	-2.286905051045845e-07	-0.0001623950877770026	-7.959767122474743e-05	-9.785967636619053e-05	-0.000109987098644998	0	6.612781986447721e-38	14.08326221019201	-55.51170219444458	24.08342260949578	42.56442227742819	-40.58529353870858	0	6.612781986407522e-38
46.63333333333333	0	-1.724182147675843e-34	0	0	0.93	0	-2.150341494629251e-35	-2.230453265448295e-57	0	2.353276121269244e-39	2.533749641747117e-41	5.998312056386924e-45	0	0	-2.150341494109841e-35	-2.230453265448295e-57	0	2.353276121269244e-39	2.533749641747117e-41	5.998311895897994e-45	0	0	0	-1.724182147675843e-34	0	-2.286905051045845e-07	-0.0001623950877770026	-7.959767122474743e-05	-9.785967636619053e-05	-0.000109987098644998	0	3.659356180855036e-38	13.92580390298264	-55.49639165499023	24.2067519723153	42.49791991244336	-40.53700154091797	0	3.659356180855036e-38
46.65	-1.20692750337309e-33	0	0	0	0.93	0	1.260521908758089e-37	3.092600058565663e-77	0	0	3.355141160789871e-40	-4.730234417383036e-37	0	0	1.260521909346139e-37	3.092600058565663e-77	0	0	3.355141160789871e-40	-4.730234417383036e-37	0	0	-1.20692750337309e-33	0	0	-2.286905051045845e-07	-0.0001623950877770026	-7.959767122474743e-05	-9.785967636619053e-05	-0.000109987098644998	0	1.566505532846906e-37	13.76164423953638	-55.46986484547162	24.32651493936844	42.42474214431635	-40.50374891378255	0	1.566505532846906e-37
46.66666666666666	8.608962144147228e-35	0	-4.310455369189608e-35	0	0.93	0	-2.850691905746492e-36	3.061677119657154e-81	0	7.658568314522123e-40	1.408987952601789e-41	7.128596696780053e-37	0	0	-2.850691905746425e-36	3.061677119657154e-81	0	7.658568314522123e-40	1.408987952601789e-41	7.128596696780053e-37	0	0	8.608962144147228e-35	0	-4.310455369189608e-35	-2.286905051045845e-07	-0.0001623950877770026	-7.959767122474743e-05	-9.785967636619053e-05	-0.000109987098644998	0	1.550842028061136e-41	13.61220534030361	-55.4605748777584	24.45145333178399	42.36805112338244	-40.44446511791934	0	1.550842028061136e-41
